<svg width="180" height="57" viewBox="0 0 180 57" fill="none" xmlns="http://www.w3.org/2000/svg">
<path d="M41.04 0.542854C38.9376 0.542854 37.2323 1.94191 37.2323 3.66671V53.8761C37.2323 55.601 38.9376 57 41.04 57C43.1423 57 44.8477 55.6009 44.8477 53.8761V3.66671C44.8477 1.94185 43.1423 0.542854 41.04 0.542854Z" fill="black"/>
<path d="M53.28 4.28068C51.1776 4.28068 49.4723 5.67974 49.4723 7.40454V50.1411C49.4723 51.866 51.1776 53.265 53.28 53.265C55.3824 53.265 57.0877 51.8659 57.0877 50.1411V7.40454C57.0877 5.67859 55.3837 4.28068 53.28 4.28068Z" fill="black"/>
<path d="M65.52 13.2068C63.4176 13.2068 61.7123 14.6058 61.7123 16.3307V41.2164C61.7123 42.9413 63.4176 44.3403 65.52 44.3403C67.6224 44.3403 69.3277 42.9412 69.3277 41.2164L69.329 16.3307C69.329 14.6058 67.6237 13.2068 65.52 13.2068Z" fill="black"/>
<path d="M77.76 20.8777C75.6576 20.8777 73.9523 22.2767 73.9523 24.0015V33.5444C73.9523 35.2693 75.6576 36.6683 77.76 36.6683C79.8623 36.6683 81.5677 35.2692 81.5677 33.5444V24.0015C81.5677 22.2756 79.8623 20.8777 77.76 20.8777Z" fill="black"/>
<path d="M4.32 20.8777C2.21757 20.8777 0.512339 22.2767 0.512339 24.0015V33.5444C0.512339 35.2693 2.21764 36.6683 4.32 36.6683C6.42235 36.6683 8.12766 35.2692 8.12766 33.5444V24.0015C8.12766 22.2756 6.42235 20.8777 4.32 20.8777Z" fill="black"/>
<path d="M175.68 20.8777C173.578 20.8777 171.872 22.2767 171.872 24.0015V33.5444C171.872 35.2693 173.578 36.6683 175.68 36.6683C177.782 36.6683 179.488 35.2692 179.488 33.5444V24.0015C179.488 22.2756 177.782 20.8777 175.68 20.8777Z" fill="black"/>
<path d="M28.8 4.28068C26.6976 4.28068 24.9923 5.67974 24.9923 7.40454V50.1411C24.9923 51.866 26.6976 53.265 28.8 53.265C30.9024 53.265 32.6077 51.8659 32.6077 50.1411V7.40454C32.6077 5.67859 30.9024 4.28068 28.8 4.28068Z" fill="black"/>
<path d="M16.56 13.2068C14.4576 13.2068 12.7523 14.6058 12.7523 16.3307V41.2164C12.7523 42.9413 14.4576 44.3403 16.56 44.3403C18.6624 44.3403 20.3677 42.9412 20.3677 41.2164V16.3307C20.3677 14.6058 18.6637 13.2068 16.56 13.2068Z" fill="black"/>
<path d="M138.96 0.542854C136.858 0.542854 135.152 1.94191 135.152 3.66671V53.8761C135.152 55.601 136.858 57 138.96 57C141.062 57 142.768 55.6009 142.768 53.8761L142.769 3.66671C142.769 1.94185 141.064 0.542854 138.96 0.542854Z" fill="black"/>
<path d="M151.2 4.28068C149.098 4.28068 147.392 5.67974 147.392 7.40454V50.1411C147.392 51.866 149.098 53.265 151.2 53.265C153.302 53.265 155.008 51.8659 155.008 50.1411V7.40454C155.008 5.67859 153.302 4.28068 151.2 4.28068Z" fill="black"/>
<path d="M163.44 13.2068C161.338 13.2068 159.632 14.6058 159.632 16.3307V41.2164C159.632 42.9413 161.338 44.3403 163.44 44.3403C165.542 44.3403 167.248 42.9412 167.248 41.2164V16.3307C167.248 14.6058 165.542 13.2068 163.44 13.2068Z" fill="black"/>
<path d="M90 23.8066C87.8976 23.8066 86.1923 25.2056 86.1923 26.9304V30.6155C86.1923 32.3404 87.8976 33.7394 90 33.7394C92.1023 33.7394 93.8077 32.3403 93.8077 30.6155V26.9304C93.8077 25.2045 92.1023 23.8066 90 23.8066Z" fill="black"/>
<path d="M126.72 4.28068C124.618 4.28068 122.912 5.67974 122.912 7.40454V50.1411C122.912 51.866 124.618 53.265 126.72 53.265C128.822 53.265 130.528 51.8659 130.528 50.1411V7.40454C130.528 5.67859 128.822 4.28068 126.72 4.28068Z" fill="black"/>
<path d="M114.48 13.2068C112.378 13.2068 110.672 14.6058 110.672 16.3307V41.2164C110.672 42.9413 112.378 44.3403 114.48 44.3403C116.582 44.3403 118.288 42.9412 118.288 41.2164L118.289 16.3307C118.289 14.6058 116.584 13.2068 114.48 13.2068Z" fill="black"/>
<path d="M102.24 20.8777C100.138 20.8777 98.4323 22.2767 98.4323 24.0015V33.5444C98.4323 35.2693 100.138 36.6683 102.24 36.6683C104.342 36.6683 106.048 35.2692 106.048 33.5444V24.0015C106.048 22.2756 104.344 20.8777 102.24 20.8777Z" fill="black"/>
</svg>
